<svg width="215" height="66" viewBox="0 0 215 66" fill="none" xmlns="http://www.w3.org/2000/svg">
<rect x="1" y="1" width="213" height="64" rx="10" fill="white"/>
<path d="M28.1517 33.0015C28.1517 37.3291 31.6724 40.8495 36 40.8495C40.3274 40.8495 43.8478 37.3289 43.8478 33.0015C43.8478 28.674 40.3274 25.1533 36 25.1533C31.6724 25.1533 28.1517 28.674 28.1517 33.0015Z" fill="black"/>
<path d="M54.0714 22.642C54.1326 22.5344 54.1314 22.4024 54.0682 22.2959C52.2402 19.2171 49.6387 16.6382 46.545 14.838C43.3565 12.9824 39.7099 12.0016 36 12.0016C29.5795 12.0016 23.5959 14.883 19.5835 19.9069C19.4949 20.0176 19.4834 20.1711 19.5543 20.2938L25.466 30.5329C25.5279 30.6403 25.6422 30.705 25.764 30.705C25.7794 30.705 25.7951 30.7039 25.8106 30.7018C25.9492 30.683 26.0625 30.5822 26.0975 30.4468C27.2632 25.9302 31.3352 22.7758 36 22.7758C36.2894 22.7758 36.5884 22.789 36.8889 22.8147C36.8986 22.8156 36.9086 22.816 36.9183 22.816H53.7722C53.896 22.816 54.0103 22.7497 54.0714 22.642Z" fill="black"/>
<path d="M39.1032 42.9748C39.0177 42.8642 38.8742 42.8167 38.7388 42.8542C37.8497 43.1018 36.9283 43.2272 36 43.2272C32.056 43.2272 28.421 40.914 26.7392 37.3343C26.7351 37.3254 26.7305 37.3169 26.7257 37.3084L18.2927 22.7023C18.2312 22.5956 18.1175 22.5302 17.9945 22.5302C17.994 22.5302 17.9933 22.5302 17.9927 22.5302C17.8691 22.5308 17.7552 22.5976 17.6946 22.7053C15.9318 25.8333 15 29.3936 15 33.0015C15 38.0629 16.826 42.9518 20.1415 46.7677C23.4241 50.5457 27.9433 53.0319 32.8669 53.7687C32.884 53.7713 32.9011 53.7724 32.918 53.7724C33.0396 53.7724 33.1539 53.7076 33.216 53.6002L39.1292 43.358C39.1992 43.2368 39.1888 43.0854 39.1032 42.9748Z" fill="black"/>
<path d="M55.2339 25.1131H43.3949C43.255 25.1131 43.129 25.1978 43.0762 25.3272C43.0234 25.4567 43.0541 25.6054 43.1539 25.7032C45.1348 27.6451 46.2257 30.237 46.2257 33.0015C46.2257 35.0944 45.5942 37.1084 44.3993 38.8262C44.3938 38.8342 44.3887 38.8423 44.3839 38.8507L35.9362 53.4821C35.8744 53.5892 35.8748 53.7213 35.9372 53.8282C35.999 53.9338 36.1122 53.9985 36.2344 53.9985C36.2356 53.9985 36.237 53.9985 36.2382 53.9985C41.7974 53.9365 47.014 51.7248 50.9271 47.7712C54.8433 43.8143 57 38.5689 57 33.0015C57 30.3552 56.5136 27.7748 55.5544 25.3316C55.5026 25.1997 55.3755 25.1131 55.2339 25.1131Z" fill="black"/>
<path d="M79.623 50.3174C84.1172 50.3174 87.2529 47.7275 87.6846 43.6396H83.9521C83.5459 45.8105 81.9082 47.1436 79.6357 47.1436C76.7031 47.1436 74.8623 44.7314 74.8623 40.8213C74.8623 36.9619 76.7285 34.5371 79.623 34.5371C81.8574 34.5371 83.584 36.0098 83.9395 38.2568H87.6719C87.3799 34.1562 84.0283 31.3633 79.623 31.3633C74.3164 31.3633 70.9521 34.9307 70.9521 40.834C70.9521 46.75 74.291 50.3174 79.623 50.3174ZM89.8936 50H93.6006V42.0654C93.6006 40.1865 94.6797 38.9043 96.5078 38.9043C98.2725 38.9043 99.1865 40.0088 99.1865 41.8369V50H102.894V41.0625C102.894 37.8252 101.104 35.8193 98.0059 35.8193C95.873 35.8193 94.4004 36.7588 93.6133 38.5234H93.5371V30.8047H89.8936V50ZM105.356 50H109.063V42.1797C109.063 40.2246 110.168 39.0566 112.047 39.0566C112.593 39.0566 113.101 39.1455 113.418 39.2725V35.9971C113.151 35.9082 112.771 35.8574 112.339 35.8574C110.688 35.8574 109.482 36.7969 109.013 38.5234H108.937V36.0225H105.356V50ZM120.921 50.2412C125.161 50.2412 127.814 47.5371 127.814 43.0049C127.814 38.5234 125.136 35.7812 120.921 35.7812C116.719 35.7812 114.027 38.5361 114.027 43.0049C114.027 47.5244 116.681 50.2412 120.921 50.2412ZM120.921 47.3848C118.966 47.3848 117.785 45.7852 117.785 43.0049C117.785 40.2627 118.966 38.625 120.921 38.625C122.863 38.625 124.044 40.25 124.044 43.0049C124.044 45.7852 122.876 47.3848 120.921 47.3848ZM129.808 50H133.515V41.5957C133.515 40.0088 134.53 38.8916 135.99 38.8916C137.425 38.8916 138.288 39.793 138.288 41.291V50H141.868V41.5449C141.868 39.958 142.846 38.8916 144.306 38.8916C145.816 38.8916 146.642 39.793 146.642 41.4307V50H150.349V40.5039C150.349 37.6855 148.508 35.8193 145.766 35.8193C143.734 35.8193 142.059 36.9238 141.424 38.6758H141.348C140.878 36.8477 139.456 35.8193 137.45 35.8193C135.584 35.8193 134.061 36.873 133.464 38.5615H133.388V36.0225H129.808V50ZM159.045 38.5488C160.759 38.5488 161.952 39.7422 162.016 41.5703H155.985C156.112 39.7803 157.356 38.5488 159.045 38.5488ZM162.066 45.7344C161.711 46.8135 160.606 47.4736 159.21 47.4736C157.255 47.4736 155.947 46.1152 155.947 44.0967V43.8682H165.596V42.7256C165.596 38.4727 163.031 35.7812 159.007 35.7812C154.906 35.7812 152.291 38.625 152.291 43.0684C152.291 47.5117 154.894 50.2412 159.146 50.2412C162.549 50.2412 165.075 48.4385 165.481 45.7344H162.066Z" fill="black"/>
<path d="M70.9741 12.4312V23H74.7607C77.9102 23 79.7632 21.0371 79.7632 17.6973C79.7632 14.3647 77.9102 12.4312 74.7607 12.4312H70.9741ZM72.6147 13.8447H74.6069C76.8481 13.8447 78.0933 15.2217 78.0933 17.7119C78.0933 20.2095 76.8481 21.5791 74.6069 21.5791H72.6147V13.8447ZM85.7752 23.0952C88.075 23.0952 89.5325 21.5278 89.5325 19.0229C89.5325 16.5181 88.0677 14.9434 85.7752 14.9434C83.4827 14.9434 82.0105 16.5254 82.0105 19.0229C82.0105 21.5278 83.4754 23.0952 85.7752 23.0952ZM85.7752 21.7769C84.4275 21.7769 83.6219 20.7588 83.6219 19.0229C83.6219 17.2944 84.4275 16.2617 85.7752 16.2617C87.1229 16.2617 87.9212 17.2871 87.9212 19.0229C87.9212 20.7588 87.1229 21.7769 85.7752 21.7769ZM102.422 15.0459H100.855L99.3751 21.3447H99.3458L97.6539 15.0459H96.1305L94.4459 21.3447H94.4166L92.9371 15.0459H91.3551L93.5523 23H95.1856L96.8629 17.0088H96.8995L98.5914 23H100.232L102.422 15.0459ZM104.633 23H106.222V18.4077C106.222 17.1553 106.94 16.3203 108.141 16.3203C109.306 16.3203 109.862 16.9941 109.862 18.2026V23H111.452V17.9023C111.452 16.0713 110.448 14.958 108.69 14.958C107.46 14.958 106.662 15.4487 106.178 16.3862H106.149V15.0459H104.633V23ZM114.307 23H115.896V11.9551H114.307V23ZM122.201 23.0952C124.501 23.0952 125.958 21.5278 125.958 19.0229C125.958 16.5181 124.494 14.9434 122.201 14.9434C119.909 14.9434 118.437 16.5254 118.437 19.0229C118.437 21.5278 119.901 23.0952 122.201 23.0952ZM122.201 21.7769C120.854 21.7769 120.048 20.7588 120.048 19.0229C120.048 17.2944 120.854 16.2617 122.201 16.2617C123.549 16.2617 124.347 17.2871 124.347 19.0229C124.347 20.7588 123.549 21.7769 122.201 21.7769ZM131.194 21.8135C130.279 21.8135 129.685 21.374 129.685 20.6929C129.685 19.9897 130.249 19.5869 131.333 19.521L133.267 19.3892V20.0117C133.267 21.0591 132.373 21.8135 131.194 21.8135ZM130.769 23.0806C131.853 23.0806 132.842 22.5386 133.282 21.6743H133.318V23H134.834V17.5435C134.834 15.9688 133.582 14.9434 131.641 14.9434C129.854 14.9434 128.521 15.9834 128.477 17.3896H129.964C130.103 16.7012 130.733 16.2544 131.597 16.2544C132.659 16.2544 133.267 16.7524 133.267 17.6606V18.2759L131.121 18.4004C129.158 18.5249 128.081 19.3306 128.081 20.7222C128.081 22.1431 129.18 23.0806 130.769 23.0806ZM140.627 23.0806C141.791 23.0806 142.699 22.5532 143.168 21.6523H143.197V23H144.735V11.9551H143.153V16.3643H143.117C142.663 15.4854 141.754 14.9653 140.612 14.9653C138.634 14.9653 137.272 16.5693 137.272 19.0156C137.272 21.4766 138.634 23.0806 140.627 23.0806ZM141.029 16.313C142.304 16.313 143.161 17.4043 143.161 19.0229C143.161 20.6489 142.304 21.7329 141.029 21.7329C139.74 21.7329 138.898 20.6709 138.898 19.0229C138.898 17.3823 139.748 16.313 141.029 16.313ZM152.753 23H154.335V16.2983H155.851V15.0459H154.321V14.3647C154.328 13.6836 154.599 13.3979 155.251 13.3979C155.463 13.3979 155.683 13.4199 155.844 13.4565V12.248C155.588 12.2041 155.324 12.1748 155.038 12.1748C153.427 12.1748 152.753 12.8267 152.753 14.3135V15.0459H151.654V16.2983H152.753V23ZM161.453 23.0952C163.753 23.0952 165.21 21.5278 165.21 19.0229C165.21 16.5181 163.746 14.9434 161.453 14.9434C159.161 14.9434 157.688 16.5254 157.688 19.0229C157.688 21.5278 159.153 23.0952 161.453 23.0952ZM161.453 21.7769C160.105 21.7769 159.3 20.7588 159.3 19.0229C159.3 17.2944 160.105 16.2617 161.453 16.2617C162.801 16.2617 163.599 17.2871 163.599 19.0229C163.599 20.7588 162.801 21.7769 161.453 21.7769ZM167.685 23H169.274V18.2539C169.274 17.1333 169.933 16.4082 170.981 16.4082C171.296 16.4082 171.574 16.4521 171.706 16.5034V15.0166C171.581 14.9873 171.384 14.9653 171.149 14.9653C170.212 14.9653 169.479 15.5 169.23 16.3862H169.201V15.0459H167.685V23Z" fill="black"/>
<rect x="1" y="1" width="213" height="64" stroke="black" stroke-miterlimit="0" stroke-linejoin="bevel"/>
</svg>
