<svg width="215" height="66" viewBox="0 0 215 66" fill="none" xmlns="http://www.w3.org/2000/svg">
<rect x="1" y="1" width="213" height="64" rx="10" fill="white"/>
<path d="M28.1517 33.0015C28.1517 37.3291 31.6724 40.8495 36 40.8495C40.3274 40.8495 43.8478 37.3289 43.8478 33.0015C43.8478 28.674 40.3274 25.1533 36 25.1533C31.6724 25.1533 28.1517 28.674 28.1517 33.0015Z" fill="black"/>
<path d="M54.0714 22.642C54.1326 22.5344 54.1314 22.4024 54.0682 22.2959C52.2402 19.2171 49.6387 16.6382 46.545 14.838C43.3565 12.9824 39.7099 12.0016 36 12.0016C29.5795 12.0016 23.5959 14.883 19.5835 19.9069C19.4949 20.0176 19.4834 20.1711 19.5543 20.2938L25.466 30.5329C25.5279 30.6403 25.6422 30.705 25.764 30.705C25.7794 30.705 25.7951 30.7039 25.8106 30.7018C25.9492 30.683 26.0625 30.5822 26.0975 30.4468C27.2632 25.9302 31.3352 22.7758 36 22.7758C36.2894 22.7758 36.5884 22.789 36.8889 22.8147C36.8986 22.8156 36.9086 22.816 36.9183 22.816H53.7722C53.896 22.816 54.0103 22.7497 54.0714 22.642Z" fill="black"/>
<path d="M39.1032 42.9748C39.0177 42.8642 38.8742 42.8167 38.7388 42.8542C37.8497 43.1018 36.9283 43.2272 36 43.2272C32.056 43.2272 28.421 40.914 26.7392 37.3343C26.7351 37.3254 26.7305 37.3169 26.7257 37.3084L18.2927 22.7023C18.2312 22.5956 18.1175 22.5302 17.9945 22.5302C17.994 22.5302 17.9933 22.5302 17.9927 22.5302C17.8691 22.5308 17.7552 22.5976 17.6946 22.7053C15.9318 25.8333 15 29.3936 15 33.0015C15 38.0629 16.826 42.9518 20.1415 46.7677C23.4241 50.5457 27.9433 53.0319 32.8669 53.7687C32.884 53.7713 32.9011 53.7724 32.918 53.7724C33.0396 53.7724 33.1539 53.7076 33.216 53.6002L39.1292 43.358C39.1992 43.2368 39.1888 43.0854 39.1032 42.9748Z" fill="black"/>
<path d="M55.2339 25.1131H43.3949C43.255 25.1131 43.129 25.1978 43.0762 25.3272C43.0234 25.4567 43.0541 25.6054 43.1539 25.7032C45.1348 27.6451 46.2257 30.237 46.2257 33.0015C46.2257 35.0944 45.5942 37.1084 44.3993 38.8262C44.3938 38.8342 44.3887 38.8423 44.3839 38.8507L35.9362 53.4821C35.8744 53.5892 35.8748 53.7213 35.9372 53.8282C35.999 53.9338 36.1122 53.9985 36.2344 53.9985C36.2356 53.9985 36.237 53.9985 36.2382 53.9985C41.7974 53.9365 47.014 51.7249 50.9271 47.7712C54.8433 43.8143 57 38.5689 57 33.0015C57 30.3552 56.5136 27.7748 55.5544 25.3316C55.5026 25.1997 55.3755 25.1131 55.2339 25.1131Z" fill="black"/>
<path d="M74.0514 23H71.8248L71.8395 21.8501H74.0514C74.8131 21.8501 75.4479 21.6914 75.9557 21.374C76.4635 21.0518 76.8444 20.6025 77.0983 20.0264C77.3571 19.4453 77.4865 18.7666 77.4865 17.9902V17.3384C77.4865 16.728 77.4132 16.186 77.2667 15.7124C77.1202 15.2339 76.9054 14.8311 76.6222 14.5039C76.339 14.1719 75.9923 13.9204 75.5822 13.7495C75.1769 13.5786 74.7106 13.4932 74.1832 13.4932H71.7809V12.3359H74.1832C74.8815 12.3359 75.5187 12.4531 76.0948 12.6875C76.671 12.917 77.1666 13.2515 77.5817 13.6909C78.0016 14.1255 78.3239 14.6528 78.5485 15.2729C78.7731 15.8882 78.8854 16.5815 78.8854 17.353V17.9902C78.8854 18.7617 78.7731 19.4575 78.5485 20.0776C78.3239 20.6929 77.9991 21.2178 77.5743 21.6523C77.1544 22.0869 76.6466 22.4214 76.0509 22.6558C75.4601 22.8853 74.7936 23 74.0514 23ZM72.5792 12.3359V23H71.1656V12.3359H72.5792ZM81.6454 19.1255V18.957C81.6454 18.3857 81.7284 17.856 81.8945 17.3677C82.0605 16.8745 82.2997 16.4473 82.6122 16.0859C82.9247 15.7197 83.3031 15.4365 83.7475 15.2363C84.1918 15.0312 84.6899 14.9287 85.2416 14.9287C85.7983 14.9287 86.2988 15.0312 86.7431 15.2363C87.1923 15.4365 87.5732 15.7197 87.8857 16.0859C88.2031 16.4473 88.4448 16.8745 88.6108 17.3677C88.7768 17.856 88.8598 18.3857 88.8598 18.957V19.1255C88.8598 19.6968 88.7768 20.2266 88.6108 20.7148C88.4448 21.2031 88.2031 21.6304 87.8857 21.9966C87.5732 22.3579 87.1948 22.6411 86.7504 22.8462C86.311 23.0464 85.8129 23.1465 85.2563 23.1465C84.6996 23.1465 84.1991 23.0464 83.7548 22.8462C83.3105 22.6411 82.9296 22.3579 82.6122 21.9966C82.2997 21.6304 82.0605 21.2031 81.8945 20.7148C81.7284 20.2266 81.6454 19.6968 81.6454 19.1255ZM83.0004 18.957V19.1255C83.0004 19.521 83.0468 19.8945 83.1396 20.2461C83.2323 20.5928 83.3715 20.9004 83.5571 21.1689C83.7475 21.4375 83.9843 21.6499 84.2675 21.8062C84.5507 21.9575 84.8803 22.0332 85.2563 22.0332C85.6274 22.0332 85.9521 21.9575 86.2304 21.8062C86.5136 21.6499 86.748 21.4375 86.9335 21.1689C87.1191 20.9004 87.2582 20.5928 87.351 20.2461C87.4487 19.8945 87.4975 19.521 87.4975 19.1255V18.957C87.4975 18.5664 87.4487 18.1978 87.351 17.8511C87.2582 17.4995 87.1166 17.1895 86.9262 16.9209C86.7406 16.6475 86.5063 16.4326 86.2231 16.2764C85.9448 16.1201 85.6176 16.042 85.2416 16.042C84.8705 16.042 84.5434 16.1201 84.2602 16.2764C83.9819 16.4326 83.7475 16.6475 83.5571 16.9209C83.3715 17.1895 83.2323 17.4995 83.1396 17.8511C83.0468 18.1978 83.0004 18.5664 83.0004 18.957ZM93.7658 21.5938L95.802 15.0752H96.6955L96.5198 16.3716L94.447 23H93.5754L93.7658 21.5938ZM92.3962 15.0752L94.1321 21.667L94.2566 23H93.341L91.0412 15.0752H92.3962ZM98.6438 21.6157L100.299 15.0752H101.647L99.3469 23H98.4387L98.6438 21.6157ZM96.8933 15.0752L98.8855 21.4839L99.1125 23H98.2483L96.1169 16.3569L95.9411 15.0752H96.8933ZM105.593 16.7671V23H104.238V15.0752H105.52L105.593 16.7671ZM105.271 18.7373L104.707 18.7153C104.712 18.1733 104.793 17.6729 104.949 17.2139C105.105 16.75 105.325 16.3472 105.608 16.0054C105.891 15.6636 106.228 15.3999 106.619 15.2144C107.014 15.0239 107.451 14.9287 107.93 14.9287C108.32 14.9287 108.672 14.9824 108.984 15.0898C109.297 15.1924 109.563 15.3584 109.783 15.5879C110.007 15.8174 110.178 16.1152 110.295 16.4814C110.413 16.8428 110.471 17.2847 110.471 17.8071V23H109.109V17.7925C109.109 17.3774 109.048 17.0454 108.926 16.7964C108.804 16.5425 108.626 16.3594 108.391 16.2471C108.157 16.1299 107.869 16.0713 107.527 16.0713C107.19 16.0713 106.882 16.1421 106.604 16.2837C106.331 16.4253 106.094 16.6206 105.894 16.8696C105.698 17.1187 105.544 17.4043 105.432 17.7266C105.325 18.0439 105.271 18.3809 105.271 18.7373ZM115.201 11.75V23H113.839V11.75H115.201ZM118.218 19.1255V18.957C118.218 18.3857 118.301 17.856 118.467 17.3677C118.633 16.8745 118.872 16.4473 119.185 16.0859C119.497 15.7197 119.876 15.4365 120.32 15.2363C120.764 15.0312 121.262 14.9287 121.814 14.9287C122.371 14.9287 122.871 15.0312 123.316 15.2363C123.765 15.4365 124.146 15.7197 124.458 16.0859C124.776 16.4473 125.017 16.8745 125.183 17.3677C125.349 17.856 125.432 18.3857 125.432 18.957V19.1255C125.432 19.6968 125.349 20.2266 125.183 20.7148C125.017 21.2031 124.776 21.6304 124.458 21.9966C124.146 22.3579 123.767 22.6411 123.323 22.8462C122.883 23.0464 122.385 23.1465 121.829 23.1465C121.272 23.1465 120.772 23.0464 120.327 22.8462C119.883 22.6411 119.502 22.3579 119.185 21.9966C118.872 21.6304 118.633 21.2031 118.467 20.7148C118.301 20.2266 118.218 19.6968 118.218 19.1255ZM119.573 18.957V19.1255C119.573 19.521 119.619 19.8945 119.712 20.2461C119.805 20.5928 119.944 20.9004 120.13 21.1689C120.32 21.4375 120.557 21.6499 120.84 21.8062C121.123 21.9575 121.453 22.0332 121.829 22.0332C122.2 22.0332 122.525 21.9575 122.803 21.8062C123.086 21.6499 123.32 21.4375 123.506 21.1689C123.692 20.9004 123.831 20.5928 123.923 20.2461C124.021 19.8945 124.07 19.521 124.07 19.1255V18.957C124.07 18.5664 124.021 18.1978 123.923 17.8511C123.831 17.4995 123.689 17.1895 123.499 16.9209C123.313 16.6475 123.079 16.4326 122.796 16.2764C122.517 16.1201 122.19 16.042 121.814 16.042C121.443 16.042 121.116 16.1201 120.833 16.2764C120.554 16.4326 120.32 16.6475 120.13 16.9209C119.944 17.1895 119.805 17.4995 119.712 17.8511C119.619 18.1978 119.573 18.5664 119.573 18.957ZM133.004 21.645V17.5654C133.004 17.2529 132.941 16.9819 132.814 16.7524C132.692 16.5181 132.506 16.3374 132.257 16.2104C132.008 16.0835 131.701 16.02 131.334 16.02C130.993 16.02 130.692 16.0786 130.434 16.1958C130.18 16.313 129.979 16.4668 129.833 16.6572C129.691 16.8477 129.621 17.0527 129.621 17.2725H128.266C128.266 16.9893 128.339 16.7085 128.485 16.4302C128.632 16.1519 128.842 15.9004 129.115 15.6758C129.393 15.4463 129.726 15.2656 130.111 15.1338C130.502 14.9971 130.936 14.9287 131.415 14.9287C131.991 14.9287 132.499 15.0264 132.938 15.2217C133.383 15.417 133.729 15.7124 133.978 16.1079C134.232 16.4985 134.359 16.9893 134.359 17.5801V21.2715C134.359 21.5352 134.381 21.8159 134.425 22.1138C134.474 22.4116 134.545 22.668 134.638 22.8828V23H133.224C133.156 22.8438 133.102 22.6362 133.063 22.3774C133.024 22.1138 133.004 21.8696 133.004 21.645ZM133.239 18.1953L133.253 19.1475H131.884C131.498 19.1475 131.154 19.1792 130.851 19.2427C130.548 19.3013 130.294 19.3916 130.089 19.5137C129.884 19.6357 129.728 19.7896 129.621 19.9751C129.513 20.1558 129.459 20.3682 129.459 20.6123C129.459 20.8613 129.516 21.0884 129.628 21.2935C129.74 21.4985 129.909 21.6621 130.133 21.7842C130.363 21.9014 130.643 21.96 130.976 21.96C131.391 21.96 131.757 21.8721 132.074 21.6963C132.392 21.5205 132.643 21.3057 132.829 21.0518C133.019 20.7979 133.122 20.5513 133.136 20.312L133.715 20.9639C133.681 21.1689 133.588 21.396 133.436 21.645C133.285 21.894 133.082 22.1333 132.829 22.3628C132.58 22.5874 132.282 22.7754 131.935 22.9268C131.593 23.0732 131.207 23.1465 130.778 23.1465C130.241 23.1465 129.769 23.0415 129.364 22.8315C128.964 22.6216 128.651 22.3408 128.427 21.9893C128.207 21.6328 128.097 21.2349 128.097 20.7954C128.097 20.3706 128.18 19.9971 128.346 19.6748C128.512 19.3477 128.751 19.0767 129.064 18.8618C129.376 18.6421 129.752 18.4761 130.192 18.3638C130.631 18.2515 131.122 18.1953 131.664 18.1953H133.239ZM142.686 21.4619V11.75H144.048V23H142.803L142.686 21.4619ZM137.354 19.1255V18.9717C137.354 18.3662 137.427 17.8169 137.573 17.3237C137.725 16.8257 137.937 16.3984 138.211 16.042C138.489 15.6855 138.819 15.4121 139.199 15.2217C139.585 15.0264 140.015 14.9287 140.489 14.9287C140.987 14.9287 141.421 15.0166 141.792 15.1924C142.168 15.3633 142.486 15.6147 142.744 15.9468C143.008 16.2739 143.216 16.6694 143.367 17.1333C143.518 17.5972 143.623 18.1221 143.682 18.708V19.3818C143.628 19.9629 143.523 20.4854 143.367 20.9492C143.216 21.4131 143.008 21.8086 142.744 22.1357C142.486 22.4629 142.168 22.7144 141.792 22.8901C141.416 23.061 140.977 23.1465 140.474 23.1465C140.01 23.1465 139.585 23.0464 139.199 22.8462C138.819 22.646 138.489 22.3652 138.211 22.0039C137.937 21.6426 137.725 21.2178 137.573 20.7295C137.427 20.2363 137.354 19.7017 137.354 19.1255ZM138.716 18.9717V19.1255C138.716 19.521 138.755 19.8921 138.833 20.2388C138.916 20.5854 139.043 20.8906 139.214 21.1543C139.385 21.418 139.602 21.6255 139.866 21.7769C140.13 21.9233 140.445 21.9966 140.811 21.9966C141.26 21.9966 141.629 21.9014 141.917 21.7109C142.21 21.5205 142.444 21.269 142.62 20.9565C142.796 20.644 142.932 20.3047 143.03 19.9385V18.1733C142.971 17.9048 142.886 17.646 142.774 17.397C142.666 17.1431 142.525 16.9185 142.349 16.7231C142.178 16.5229 141.966 16.3643 141.712 16.2471C141.463 16.1299 141.167 16.0713 140.825 16.0713C140.454 16.0713 140.134 16.1494 139.866 16.3057C139.602 16.457 139.385 16.667 139.214 16.9355C139.043 17.1992 138.916 17.5068 138.833 17.8584C138.755 18.2051 138.716 18.5762 138.716 18.9717ZM151.919 19.1255V18.957C151.919 18.3857 152.002 17.856 152.168 17.3677C152.334 16.8745 152.574 16.4473 152.886 16.0859C153.199 15.7197 153.577 15.4365 154.021 15.2363C154.466 15.0312 154.964 14.9287 155.515 14.9287C156.072 14.9287 156.573 15.0312 157.017 15.2363C157.466 15.4365 157.847 15.7197 158.16 16.0859C158.477 16.4473 158.719 16.8745 158.885 17.3677C159.051 17.856 159.134 18.3857 159.134 18.957V19.1255C159.134 19.6968 159.051 20.2266 158.885 20.7148C158.719 21.2031 158.477 21.6304 158.16 21.9966C157.847 22.3579 157.469 22.6411 157.024 22.8462C156.585 23.0464 156.087 23.1465 155.53 23.1465C154.973 23.1465 154.473 23.0464 154.029 22.8462C153.584 22.6411 153.203 22.3579 152.886 21.9966C152.574 21.6304 152.334 21.2031 152.168 20.7148C152.002 20.2266 151.919 19.6968 151.919 19.1255ZM153.274 18.957V19.1255C153.274 19.521 153.321 19.8945 153.413 20.2461C153.506 20.5928 153.645 20.9004 153.831 21.1689C154.021 21.4375 154.258 21.6499 154.541 21.8062C154.825 21.9575 155.154 22.0332 155.53 22.0332C155.901 22.0332 156.226 21.9575 156.504 21.8062C156.787 21.6499 157.022 21.4375 157.207 21.1689C157.393 20.9004 157.532 20.5928 157.625 20.2461C157.722 19.8945 157.771 19.521 157.771 19.1255V18.957C157.771 18.5664 157.722 18.1978 157.625 17.8511C157.532 17.4995 157.39 17.1895 157.2 16.9209C157.014 16.6475 156.78 16.4326 156.497 16.2764C156.219 16.1201 155.891 16.042 155.515 16.042C155.144 16.042 154.817 16.1201 154.534 16.2764C154.256 16.4326 154.021 16.6475 153.831 16.9209C153.645 17.1895 153.506 17.4995 153.413 17.8511C153.321 18.1978 153.274 18.5664 153.274 18.957ZM163.388 16.7671V23H162.033V15.0752H163.315L163.388 16.7671ZM163.066 18.7373L162.502 18.7153C162.506 18.1733 162.587 17.6729 162.743 17.2139C162.9 16.75 163.119 16.3472 163.402 16.0054C163.686 15.6636 164.023 15.3999 164.413 15.2144C164.809 15.0239 165.246 14.9287 165.724 14.9287C166.115 14.9287 166.466 14.9824 166.779 15.0898C167.091 15.1924 167.358 15.3584 167.577 15.5879C167.802 15.8174 167.973 16.1152 168.09 16.4814C168.207 16.8428 168.266 17.2847 168.266 17.8071V23H166.903V17.7925C166.903 17.3774 166.842 17.0454 166.72 16.7964C166.598 16.5425 166.42 16.3594 166.186 16.2471C165.951 16.1299 165.663 16.0713 165.321 16.0713C164.984 16.0713 164.677 16.1421 164.399 16.2837C164.125 16.4253 163.888 16.6206 163.688 16.8696C163.493 17.1187 163.339 17.4043 163.227 17.7266C163.119 18.0439 163.066 18.3809 163.066 18.7373Z" fill="black"/>
<path d="M79.59 53.36C77.91 53.36 76.37 52.99 74.97 52.25C73.59 51.49 72.48 50.36 71.64 48.86C70.8 47.36 70.38 45.52 70.38 43.34C70.38 41.72 70.62 40.28 71.1 39.02C71.6 37.74 72.28 36.66 73.14 35.78C74 34.9 74.98 34.23 76.08 33.77C77.2 33.31 78.38 33.08 79.62 33.08C80.88 33.08 82.01 33.33 83.01 33.83C84.01 34.33 84.84 34.93 85.5 35.63L83.16 38.3C82.68 37.84 82.16 37.5 81.6 37.28C81.04 37.04 80.41 36.92 79.71 36.92C78.85 36.92 78.05 37.18 77.31 37.7C76.59 38.2 76.01 38.92 75.57 39.86C75.13 40.8 74.91 41.91 74.91 43.19C74.91 44.53 75.12 45.68 75.54 46.64C75.96 47.58 76.54 48.3 77.28 48.8C78.04 49.3 78.91 49.55 79.89 49.55C80.65 49.55 81.33 49.39 81.93 49.07C82.53 48.75 83.06 48.37 83.52 47.93L85.74 50.54C84.9 51.48 83.97 52.19 82.95 52.67C81.93 53.13 80.81 53.36 79.59 53.36ZM88.4109 53V31.97H92.8209V37.13L92.6109 39.8C93.1709 39.3 93.8209 38.84 94.5609 38.42C95.3209 37.98 96.2009 37.76 97.2009 37.76C98.8409 37.76 100.021 38.3 100.741 39.38C101.461 40.44 101.821 41.9 101.821 43.76V53H97.4109V44.33C97.4109 43.25 97.2609 42.51 96.9609 42.11C96.6809 41.71 96.2209 41.51 95.5809 41.51C95.0209 41.51 94.5409 41.64 94.1409 41.9C93.7409 42.14 93.3009 42.49 92.8209 42.95V53H88.4109ZM105.55 53V38.12H109.15L109.45 40.73H109.57C110.11 39.73 110.75 38.99 111.49 38.51C112.25 38.01 113.02 37.76 113.8 37.76C114.22 37.76 114.57 37.79 114.85 37.85C115.13 37.89 115.37 37.96 115.57 38.06L114.73 41.81C114.49 41.75 114.26 41.71 114.04 41.69C113.82 41.65 113.55 41.63 113.23 41.63C112.67 41.63 112.08 41.83 111.46 42.23C110.86 42.63 110.36 43.34 109.96 44.36V53H105.55ZM123.6 53.36C122.34 53.36 121.16 53.06 120.06 52.46C118.96 51.84 118.06 50.95 117.36 49.79C116.68 48.61 116.34 47.2 116.34 45.56C116.34 43.92 116.68 42.52 117.36 41.36C118.06 40.18 118.96 39.29 120.06 38.69C121.16 38.07 122.34 37.76 123.6 37.76C124.84 37.76 126.01 38.07 127.11 38.69C128.21 39.29 129.1 40.18 129.78 41.36C130.48 42.52 130.83 43.92 130.83 45.56C130.83 47.2 130.48 48.61 129.78 49.79C129.1 50.95 128.21 51.84 127.11 52.46C126.01 53.06 124.84 53.36 123.6 53.36ZM123.6 49.79C124.2 49.79 124.7 49.62 125.1 49.28C125.52 48.94 125.83 48.45 126.03 47.81C126.23 47.17 126.33 46.42 126.33 45.56C126.33 44.7 126.23 43.95 126.03 43.31C125.83 42.67 125.52 42.18 125.1 41.84C124.7 41.5 124.2 41.33 123.6 41.33C122.98 41.33 122.47 41.5 122.07 41.84C121.67 42.18 121.37 42.67 121.17 43.31C120.97 43.95 120.87 44.7 120.87 45.56C120.87 46.42 120.97 47.17 121.17 47.81C121.37 48.45 121.67 48.94 122.07 49.28C122.47 49.62 122.98 49.79 123.6 49.79ZM133.85 53V38.12H137.45L137.75 40.04H137.87C138.47 39.42 139.12 38.89 139.82 38.45C140.54 37.99 141.39 37.76 142.37 37.76C143.43 37.76 144.29 37.98 144.95 38.42C145.61 38.84 146.12 39.45 146.48 40.25C147.14 39.57 147.84 38.99 148.58 38.51C149.32 38.01 150.18 37.76 151.16 37.76C152.78 37.76 153.96 38.3 154.7 39.38C155.44 40.44 155.81 41.9 155.81 43.76V53H151.4V44.33C151.4 43.25 151.25 42.51 150.95 42.11C150.67 41.71 150.21 41.51 149.57 41.51C149.19 41.51 148.79 41.63 148.37 41.87C147.95 42.09 147.5 42.45 147.02 42.95V53H142.61V44.33C142.61 43.25 142.46 42.51 142.16 42.11C141.88 41.71 141.42 41.51 140.78 41.51C140.02 41.51 139.18 41.99 138.26 42.95V53H133.85ZM166.233 53.36C164.813 53.36 163.533 53.05 162.393 52.43C161.253 51.81 160.353 50.92 159.693 49.76C159.033 48.6 158.703 47.2 158.703 45.56C158.703 43.94 159.033 42.55 159.693 41.39C160.373 40.23 161.253 39.34 162.333 38.72C163.413 38.08 164.543 37.76 165.723 37.76C167.143 37.76 168.323 38.08 169.263 38.72C170.203 39.34 170.903 40.19 171.363 41.27C171.823 42.35 172.053 43.56 172.053 44.9C172.053 45.28 172.033 45.66 171.993 46.04C171.953 46.4 171.913 46.69 171.873 46.91H162.123L162.063 43.85H168.273C168.273 43.07 168.083 42.43 167.703 41.93C167.323 41.41 166.693 41.15 165.813 41.15C165.333 41.15 164.863 41.28 164.403 41.54C163.943 41.8 163.563 42.25 163.263 42.89C162.963 43.53 162.823 44.42 162.843 45.56C162.863 46.68 163.063 47.56 163.443 48.2C163.843 48.84 164.343 49.3 164.943 49.58C165.543 49.84 166.173 49.97 166.833 49.97C167.413 49.97 167.963 49.89 168.483 49.73C169.023 49.55 169.553 49.31 170.073 49.01L171.513 51.71C170.773 52.23 169.933 52.64 168.993 52.94C168.053 53.22 167.133 53.36 166.233 53.36Z" fill="black"/>
<rect x="1" y="1" width="213" height="64" stroke="black" stroke-miterlimit="0" stroke-linejoin="bevel"/>
</svg>
