<svg width="215" height="66" viewBox="0 0 215 66" fill="none" xmlns="http://www.w3.org/2000/svg">
<rect x="1" y="1" width="213" height="64" rx="10" fill="white"/>
<path d="M74.0514 23H71.8248L71.8395 21.8501H74.0514C74.8131 21.8501 75.4479 21.6914 75.9557 21.374C76.4635 21.0518 76.8444 20.6025 77.0983 20.0264C77.3571 19.4453 77.4865 18.7666 77.4865 17.9902V17.3384C77.4865 16.728 77.4132 16.186 77.2667 15.7124C77.1202 15.2339 76.9054 14.8311 76.6222 14.5039C76.339 14.1719 75.9923 13.9204 75.5822 13.7495C75.1769 13.5786 74.7106 13.4932 74.1832 13.4932H71.7809V12.3359H74.1832C74.8815 12.3359 75.5187 12.4531 76.0948 12.6875C76.671 12.917 77.1666 13.2515 77.5817 13.6909C78.0016 14.1255 78.3239 14.6528 78.5485 15.2729C78.7731 15.8882 78.8854 16.5815 78.8854 17.353V17.9902C78.8854 18.7617 78.7731 19.4575 78.5485 20.0776C78.3239 20.6929 77.9991 21.2178 77.5743 21.6523C77.1544 22.0869 76.6466 22.4214 76.0509 22.6558C75.4601 22.8853 74.7936 23 74.0514 23ZM72.5792 12.3359V23H71.1656V12.3359H72.5792ZM81.6454 19.1255V18.957C81.6454 18.3857 81.7284 17.856 81.8945 17.3677C82.0605 16.8745 82.2997 16.4473 82.6122 16.0859C82.9247 15.7197 83.3031 15.4365 83.7475 15.2363C84.1918 15.0312 84.6899 14.9287 85.2416 14.9287C85.7983 14.9287 86.2988 15.0312 86.7431 15.2363C87.1923 15.4365 87.5732 15.7197 87.8857 16.0859C88.2031 16.4473 88.4448 16.8745 88.6108 17.3677C88.7768 17.856 88.8598 18.3857 88.8598 18.957V19.1255C88.8598 19.6968 88.7768 20.2266 88.6108 20.7148C88.4448 21.2031 88.2031 21.6304 87.8857 21.9966C87.5732 22.3579 87.1948 22.6411 86.7504 22.8462C86.311 23.0464 85.8129 23.1465 85.2563 23.1465C84.6996 23.1465 84.1991 23.0464 83.7548 22.8462C83.3105 22.6411 82.9296 22.3579 82.6122 21.9966C82.2997 21.6304 82.0605 21.2031 81.8945 20.7148C81.7284 20.2266 81.6454 19.6968 81.6454 19.1255ZM83.0004 18.957V19.1255C83.0004 19.521 83.0468 19.8945 83.1396 20.2461C83.2323 20.5928 83.3715 20.9004 83.5571 21.1689C83.7475 21.4375 83.9843 21.6499 84.2675 21.8062C84.5507 21.9575 84.8803 22.0332 85.2563 22.0332C85.6274 22.0332 85.9521 21.9575 86.2304 21.8062C86.5136 21.6499 86.748 21.4375 86.9335 21.1689C87.1191 20.9004 87.2582 20.5928 87.351 20.2461C87.4487 19.8945 87.4975 19.521 87.4975 19.1255V18.957C87.4975 18.5664 87.4487 18.1978 87.351 17.8511C87.2582 17.4995 87.1166 17.1895 86.9262 16.9209C86.7406 16.6475 86.5063 16.4326 86.2231 16.2764C85.9448 16.1201 85.6176 16.042 85.2416 16.042C84.8705 16.042 84.5434 16.1201 84.2602 16.2764C83.9819 16.4326 83.7475 16.6475 83.5571 16.9209C83.3715 17.1895 83.2323 17.4995 83.1396 17.8511C83.0468 18.1978 83.0004 18.5664 83.0004 18.957ZM93.7658 21.5938L95.802 15.0752H96.6955L96.5198 16.3716L94.447 23H93.5754L93.7658 21.5938ZM92.3962 15.0752L94.1321 21.667L94.2566 23H93.341L91.0412 15.0752H92.3962ZM98.6438 21.6157L100.299 15.0752H101.647L99.3469 23H98.4387L98.6438 21.6157ZM96.8933 15.0752L98.8855 21.4839L99.1125 23H98.2483L96.1169 16.3569L95.9411 15.0752H96.8933ZM105.593 16.7671V23H104.238V15.0752H105.52L105.593 16.7671ZM105.271 18.7373L104.707 18.7153C104.712 18.1733 104.793 17.6729 104.949 17.2139C105.105 16.75 105.325 16.3472 105.608 16.0054C105.891 15.6636 106.228 15.3999 106.619 15.2144C107.014 15.0239 107.451 14.9287 107.93 14.9287C108.32 14.9287 108.672 14.9824 108.984 15.0898C109.297 15.1924 109.563 15.3584 109.783 15.5879C110.007 15.8174 110.178 16.1152 110.295 16.4814C110.413 16.8428 110.471 17.2847 110.471 17.8071V23H109.109V17.7925C109.109 17.3774 109.048 17.0454 108.926 16.7964C108.804 16.5425 108.626 16.3594 108.391 16.2471C108.157 16.1299 107.869 16.0713 107.527 16.0713C107.19 16.0713 106.882 16.1421 106.604 16.2837C106.331 16.4253 106.094 16.6206 105.894 16.8696C105.698 17.1187 105.544 17.4043 105.432 17.7266C105.325 18.0439 105.271 18.3809 105.271 18.7373ZM115.201 11.75V23H113.839V11.75H115.201ZM118.218 19.1255V18.957C118.218 18.3857 118.301 17.856 118.467 17.3677C118.633 16.8745 118.872 16.4473 119.185 16.0859C119.497 15.7197 119.876 15.4365 120.32 15.2363C120.764 15.0312 121.262 14.9287 121.814 14.9287C122.371 14.9287 122.871 15.0312 123.316 15.2363C123.765 15.4365 124.146 15.7197 124.458 16.0859C124.776 16.4473 125.017 16.8745 125.183 17.3677C125.349 17.856 125.432 18.3857 125.432 18.957V19.1255C125.432 19.6968 125.349 20.2266 125.183 20.7148C125.017 21.2031 124.776 21.6304 124.458 21.9966C124.146 22.3579 123.767 22.6411 123.323 22.8462C122.883 23.0464 122.385 23.1465 121.829 23.1465C121.272 23.1465 120.772 23.0464 120.327 22.8462C119.883 22.6411 119.502 22.3579 119.185 21.9966C118.872 21.6304 118.633 21.2031 118.467 20.7148C118.301 20.2266 118.218 19.6968 118.218 19.1255ZM119.573 18.957V19.1255C119.573 19.521 119.619 19.8945 119.712 20.2461C119.805 20.5928 119.944 20.9004 120.13 21.1689C120.32 21.4375 120.557 21.6499 120.84 21.8062C121.123 21.9575 121.453 22.0332 121.829 22.0332C122.2 22.0332 122.525 21.9575 122.803 21.8062C123.086 21.6499 123.32 21.4375 123.506 21.1689C123.692 20.9004 123.831 20.5928 123.923 20.2461C124.021 19.8945 124.07 19.521 124.07 19.1255V18.957C124.07 18.5664 124.021 18.1978 123.923 17.8511C123.831 17.4995 123.689 17.1895 123.499 16.9209C123.313 16.6475 123.079 16.4326 122.796 16.2764C122.517 16.1201 122.19 16.042 121.814 16.042C121.443 16.042 121.116 16.1201 120.833 16.2764C120.554 16.4326 120.32 16.6475 120.13 16.9209C119.944 17.1895 119.805 17.4995 119.712 17.8511C119.619 18.1978 119.573 18.5664 119.573 18.957ZM133.004 21.645V17.5654C133.004 17.2529 132.941 16.9819 132.814 16.7524C132.692 16.5181 132.506 16.3374 132.257 16.2104C132.008 16.0835 131.701 16.02 131.334 16.02C130.993 16.02 130.692 16.0786 130.434 16.1958C130.18 16.313 129.979 16.4668 129.833 16.6572C129.691 16.8477 129.621 17.0527 129.621 17.2725H128.266C128.266 16.9893 128.339 16.7085 128.485 16.4302C128.632 16.1519 128.842 15.9004 129.115 15.6758C129.393 15.4463 129.726 15.2656 130.111 15.1338C130.502 14.9971 130.936 14.9287 131.415 14.9287C131.991 14.9287 132.499 15.0264 132.938 15.2217C133.383 15.417 133.729 15.7124 133.978 16.1079C134.232 16.4985 134.359 16.9893 134.359 17.5801V21.2715C134.359 21.5352 134.381 21.8159 134.425 22.1138C134.474 22.4116 134.545 22.668 134.638 22.8828V23H133.224C133.156 22.8438 133.102 22.6362 133.063 22.3774C133.024 22.1138 133.004 21.8696 133.004 21.645ZM133.239 18.1953L133.253 19.1475H131.884C131.498 19.1475 131.154 19.1792 130.851 19.2427C130.548 19.3013 130.294 19.3916 130.089 19.5137C129.884 19.6357 129.728 19.7896 129.621 19.9751C129.513 20.1558 129.459 20.3682 129.459 20.6123C129.459 20.8613 129.516 21.0884 129.628 21.2935C129.74 21.4985 129.909 21.6621 130.133 21.7842C130.363 21.9014 130.643 21.96 130.976 21.96C131.391 21.96 131.757 21.8721 132.074 21.6963C132.392 21.5205 132.643 21.3057 132.829 21.0518C133.019 20.7979 133.122 20.5513 133.136 20.312L133.715 20.9639C133.681 21.1689 133.588 21.396 133.436 21.645C133.285 21.894 133.082 22.1333 132.829 22.3628C132.58 22.5874 132.282 22.7754 131.935 22.9268C131.593 23.0732 131.207 23.1465 130.778 23.1465C130.241 23.1465 129.769 23.0415 129.364 22.8315C128.964 22.6216 128.651 22.3408 128.427 21.9893C128.207 21.6328 128.097 21.2349 128.097 20.7954C128.097 20.3706 128.18 19.9971 128.346 19.6748C128.512 19.3477 128.751 19.0767 129.064 18.8618C129.376 18.6421 129.752 18.4761 130.192 18.3638C130.631 18.2515 131.122 18.1953 131.664 18.1953H133.239ZM142.686 21.4619V11.75H144.048V23H142.803L142.686 21.4619ZM137.354 19.1255V18.9717C137.354 18.3662 137.427 17.8169 137.573 17.3237C137.725 16.8257 137.937 16.3984 138.211 16.042C138.489 15.6855 138.819 15.4121 139.199 15.2217C139.585 15.0264 140.015 14.9287 140.489 14.9287C140.987 14.9287 141.421 15.0166 141.792 15.1924C142.168 15.3633 142.486 15.6147 142.744 15.9468C143.008 16.2739 143.216 16.6694 143.367 17.1333C143.518 17.5972 143.623 18.1221 143.682 18.708V19.3818C143.628 19.9629 143.523 20.4854 143.367 20.9492C143.216 21.4131 143.008 21.8086 142.744 22.1357C142.486 22.4629 142.168 22.7144 141.792 22.8901C141.416 23.061 140.977 23.1465 140.474 23.1465C140.01 23.1465 139.585 23.0464 139.199 22.8462C138.819 22.646 138.489 22.3652 138.211 22.0039C137.937 21.6426 137.725 21.2178 137.573 20.7295C137.427 20.2363 137.354 19.7017 137.354 19.1255ZM138.716 18.9717V19.1255C138.716 19.521 138.755 19.8921 138.833 20.2388C138.916 20.5854 139.043 20.8906 139.214 21.1543C139.385 21.418 139.602 21.6255 139.866 21.7769C140.13 21.9233 140.445 21.9966 140.811 21.9966C141.26 21.9966 141.629 21.9014 141.917 21.7109C142.21 21.5205 142.444 21.269 142.62 20.9565C142.796 20.644 142.932 20.3047 143.03 19.9385V18.1733C142.971 17.9048 142.886 17.646 142.774 17.397C142.666 17.1431 142.525 16.9185 142.349 16.7231C142.178 16.5229 141.966 16.3643 141.712 16.2471C141.463 16.1299 141.167 16.0713 140.825 16.0713C140.454 16.0713 140.134 16.1494 139.866 16.3057C139.602 16.457 139.385 16.667 139.214 16.9355C139.043 17.1992 138.916 17.5068 138.833 17.8584C138.755 18.2051 138.716 18.5762 138.716 18.9717ZM151.919 19.1255V18.957C151.919 18.3857 152.002 17.856 152.168 17.3677C152.334 16.8745 152.574 16.4473 152.886 16.0859C153.199 15.7197 153.577 15.4365 154.021 15.2363C154.466 15.0312 154.964 14.9287 155.515 14.9287C156.072 14.9287 156.573 15.0312 157.017 15.2363C157.466 15.4365 157.847 15.7197 158.16 16.0859C158.477 16.4473 158.719 16.8745 158.885 17.3677C159.051 17.856 159.134 18.3857 159.134 18.957V19.1255C159.134 19.6968 159.051 20.2266 158.885 20.7148C158.719 21.2031 158.477 21.6304 158.16 21.9966C157.847 22.3579 157.469 22.6411 157.024 22.8462C156.585 23.0464 156.087 23.1465 155.53 23.1465C154.973 23.1465 154.473 23.0464 154.029 22.8462C153.584 22.6411 153.203 22.3579 152.886 21.9966C152.574 21.6304 152.334 21.2031 152.168 20.7148C152.002 20.2266 151.919 19.6968 151.919 19.1255ZM153.274 18.957V19.1255C153.274 19.521 153.321 19.8945 153.413 20.2461C153.506 20.5928 153.645 20.9004 153.831 21.1689C154.021 21.4375 154.258 21.6499 154.541 21.8062C154.825 21.9575 155.154 22.0332 155.53 22.0332C155.901 22.0332 156.226 21.9575 156.504 21.8062C156.787 21.6499 157.022 21.4375 157.207 21.1689C157.393 20.9004 157.532 20.5928 157.625 20.2461C157.722 19.8945 157.771 19.521 157.771 19.1255V18.957C157.771 18.5664 157.722 18.1978 157.625 17.8511C157.532 17.4995 157.39 17.1895 157.2 16.9209C157.014 16.6475 156.78 16.4326 156.497 16.2764C156.219 16.1201 155.891 16.042 155.515 16.042C155.144 16.042 154.817 16.1201 154.534 16.2764C154.256 16.4326 154.021 16.6475 153.831 16.9209C153.645 17.1895 153.506 17.4995 153.413 17.8511C153.321 18.1978 153.274 18.5664 153.274 18.957ZM163.388 16.7671V23H162.033V15.0752H163.315L163.388 16.7671ZM163.066 18.7373L162.502 18.7153C162.506 18.1733 162.587 17.6729 162.743 17.2139C162.9 16.75 163.119 16.3472 163.402 16.0054C163.686 15.6636 164.023 15.3999 164.413 15.2144C164.809 15.0239 165.246 14.9287 165.724 14.9287C166.115 14.9287 166.466 14.9824 166.779 15.0898C167.091 15.1924 167.358 15.3584 167.577 15.5879C167.802 15.8174 167.973 16.1152 168.09 16.4814C168.207 16.8428 168.266 17.2847 168.266 17.8071V23H166.903V17.7925C166.903 17.3774 166.842 17.0454 166.72 16.7964C166.598 16.5425 166.42 16.3594 166.186 16.2471C165.951 16.1299 165.663 16.0713 165.321 16.0713C164.984 16.0713 164.677 16.1421 164.399 16.2837C164.125 16.4253 163.888 16.6206 163.688 16.8696C163.493 17.1187 163.339 17.4043 163.227 17.7266C163.119 18.0439 163.066 18.3809 163.066 18.7373Z" fill="black"/>
<path d="M72.31 53V33.44H84.64V37.16H76.72V41.69H83.5V45.41H76.72V53H72.31ZM87.6824 53V38.12H92.0924V53H87.6824ZM89.8724 35.93C89.1324 35.93 88.5324 35.72 88.0724 35.3C87.6124 34.88 87.3824 34.32 87.3824 33.62C87.3824 32.92 87.6124 32.36 88.0724 31.94C88.5324 31.52 89.1324 31.31 89.8724 31.31C90.6124 31.31 91.2124 31.52 91.6724 31.94C92.1324 32.36 92.3624 32.92 92.3624 33.62C92.3624 34.32 92.1324 34.88 91.6724 35.3C91.2124 35.72 90.6124 35.93 89.8724 35.93ZM95.9734 53V38.12H99.5734L99.8734 40.73H99.9934C100.533 39.73 101.173 38.99 101.913 38.51C102.673 38.01 103.443 37.76 104.223 37.76C104.643 37.76 104.993 37.79 105.273 37.85C105.553 37.89 105.793 37.96 105.993 38.06L105.153 41.81C104.913 41.75 104.683 41.71 104.463 41.69C104.243 41.65 103.973 41.63 103.653 41.63C103.093 41.63 102.503 41.83 101.883 42.23C101.283 42.63 100.783 43.34 100.383 44.36V53H95.9734ZM114.294 53.36C112.874 53.36 111.594 53.05 110.454 52.43C109.314 51.81 108.414 50.92 107.754 49.76C107.094 48.6 106.764 47.2 106.764 45.56C106.764 43.94 107.094 42.55 107.754 41.39C108.434 40.23 109.314 39.34 110.394 38.72C111.474 38.08 112.604 37.76 113.784 37.76C115.204 37.76 116.384 38.08 117.324 38.72C118.264 39.34 118.964 40.19 119.424 41.27C119.884 42.35 120.114 43.56 120.114 44.9C120.114 45.28 120.094 45.66 120.054 46.04C120.014 46.4 119.974 46.69 119.934 46.91H110.184L110.124 43.85H116.334C116.334 43.07 116.144 42.43 115.764 41.93C115.384 41.41 114.754 41.15 113.874 41.15C113.394 41.15 112.924 41.28 112.464 41.54C112.004 41.8 111.624 42.25 111.324 42.89C111.024 43.53 110.884 44.42 110.904 45.56C110.924 46.68 111.124 47.56 111.504 48.2C111.904 48.84 112.404 49.3 113.004 49.58C113.604 49.84 114.234 49.97 114.894 49.97C115.474 49.97 116.024 49.89 116.544 49.73C117.084 49.55 117.614 49.31 118.134 49.01L119.574 51.71C118.834 52.23 117.994 52.64 117.054 52.94C116.114 53.22 115.194 53.36 114.294 53.36ZM123.764 53V37.34C123.764 36.28 123.934 35.32 124.274 34.46C124.634 33.6 125.214 32.91 126.014 32.39C126.834 31.87 127.914 31.61 129.254 31.61C129.874 31.61 130.444 31.67 130.964 31.79C131.484 31.91 131.904 32.03 132.224 32.15L131.354 35.3C130.854 35.16 130.364 35.09 129.884 35.09C129.344 35.09 128.924 35.26 128.624 35.6C128.324 35.92 128.174 36.46 128.174 37.22V53H123.764ZM121.574 41.57V38.3L124.064 38.12H130.844V41.57H121.574ZM139.336 53.36C138.076 53.36 136.896 53.06 135.796 52.46C134.696 51.84 133.796 50.95 133.096 49.79C132.416 48.61 132.076 47.2 132.076 45.56C132.076 43.92 132.416 42.52 133.096 41.36C133.796 40.18 134.696 39.29 135.796 38.69C136.896 38.07 138.076 37.76 139.336 37.76C140.576 37.76 141.746 38.07 142.846 38.69C143.946 39.29 144.836 40.18 145.516 41.36C146.216 42.52 146.566 43.92 146.566 45.56C146.566 47.2 146.216 48.61 145.516 49.79C144.836 50.95 143.946 51.84 142.846 52.46C141.746 53.06 140.576 53.36 139.336 53.36ZM139.336 49.79C139.936 49.79 140.436 49.62 140.836 49.28C141.256 48.94 141.566 48.45 141.766 47.81C141.966 47.17 142.066 46.42 142.066 45.56C142.066 44.7 141.966 43.95 141.766 43.31C141.566 42.67 141.256 42.18 140.836 41.84C140.436 41.5 139.936 41.33 139.336 41.33C138.716 41.33 138.206 41.5 137.806 41.84C137.406 42.18 137.106 42.67 136.906 43.31C136.706 43.95 136.606 44.7 136.606 45.56C136.606 46.42 136.706 47.17 136.906 47.81C137.106 48.45 137.406 48.94 137.806 49.28C138.206 49.62 138.716 49.79 139.336 49.79ZM147.266 53L151.826 45.26L147.536 38.12H152.276L153.596 40.52C153.796 40.94 153.996 41.37 154.196 41.81C154.416 42.23 154.636 42.65 154.856 43.07H154.976C155.136 42.65 155.306 42.23 155.486 41.81C155.666 41.37 155.836 40.94 155.996 40.52L157.016 38.12H161.576L157.256 45.77L161.846 53H157.106L155.666 50.54C155.426 50.12 155.186 49.69 154.946 49.25C154.726 48.81 154.496 48.38 154.256 47.96H154.136C153.956 48.38 153.766 48.81 153.566 49.25C153.366 49.67 153.176 50.1 152.996 50.54L151.826 53H147.266Z" fill="black"/>
<path d="M54.602 26.6229C54.4567 26.6006 54.3143 26.6782 54.2537 26.812L53.8061 27.8028C53.6361 26.5005 53.3209 24.4043 52.9045 23.0298C52.2699 20.9135 50.926 19.5453 50.8691 19.488C50.7661 19.3845 50.6074 19.3615 50.4792 19.4316C50.3512 19.5016 50.2848 19.6478 50.3166 19.7902L50.6643 21.3572C49.8275 20.483 48.4832 19.2283 47.1529 18.6166C46.8331 18.4607 46.508 18.3178 46.2233 18.1945C43.3332 15.6273 39.6269 14.2141 35.7809 14.2141C30.3648 14.2141 25.4286 16.9273 22.506 21.4907C22.231 21.2686 21.8454 20.88 21.6245 20.3199C21.2226 19.3348 21.0191 18.2281 21.017 18.2171C20.9954 18.0982 20.9104 18.0009 20.7955 17.9637C20.6809 17.9265 20.5547 17.9553 20.4675 18.0388C18.059 20.3484 18.2981 23.949 18.3879 24.7651C18.0894 25.0839 17.2458 26.0291 16.3935 27.3929C15.3352 29.0873 15.0148 32.0496 15.0018 32.1748C14.9873 32.3146 15.0632 32.4481 15.1908 32.5069C15.3189 32.5656 15.4696 32.5364 15.5659 32.4343L16.2708 31.6897C16.1939 31.9747 16.1165 32.2995 16.0451 32.6633C15.7276 34.2337 15.8204 36.6697 15.8245 36.7726C15.8305 36.9234 15.9387 37.0508 16.0868 37.0808C16.2347 37.1112 16.3841 37.0361 16.4486 36.8996L16.8634 36.0213C17.1692 38.1592 18.3433 42.7079 22.8453 46.8983C26.1796 50.0042 30.8173 51.7858 35.5692 51.786C35.5697 51.786 35.5699 51.786 35.5704 51.786C40.1824 51.786 44.537 50.1365 48.1628 47.0162C52.4501 43.3227 54.0473 38.0482 54.632 34.2737C55.2633 30.1988 54.8938 27.0402 54.8776 26.9078C54.8602 26.7617 54.7476 26.6452 54.602 26.6229ZM47.2817 26.7416C47.2862 26.7474 47.731 27.3299 47.828 28.8226C47.8949 29.9396 47.6657 31.726 47.521 32.7034L46.6475 31.6898C46.5532 31.5805 46.3988 31.5453 46.2667 31.6039C46.1346 31.6623 46.0563 31.8001 46.0738 31.9433C46.0768 31.9685 46.3745 34.4923 45.8736 36.6861C45.6365 37.717 45.2655 38.458 44.9472 38.9471L45.0693 37.2947C45.081 37.1361 44.9774 36.9921 44.8233 36.9529C44.6691 36.9135 44.5091 36.9904 44.4437 37.1353C44.429 37.168 42.9148 40.4187 38.768 41.7059C38.1889 41.8842 37.579 41.9747 36.955 41.9747C34.7447 41.9748 32.7364 40.8472 31.598 40.0548C31.696 40.0598 31.7934 40.0623 31.8903 40.0623C33.5211 40.0623 34.7752 39.3598 35.7831 38.7952C36.0479 38.6469 36.298 38.5068 36.5386 38.3879C37.9871 37.6595 38.6605 37.5984 39.1778 37.5984C39.4511 37.5984 39.6619 37.4388 39.728 37.182C39.8899 36.5518 39.1322 35.4284 38.1965 34.9133C37.7324 34.661 37.2362 34.5435 36.6351 34.5435C35.6789 34.5435 34.4932 34.8451 32.7948 35.3049C32.4831 35.388 32.1753 35.4302 31.88 35.4302C30.8392 35.4304 30.151 34.9269 29.7569 34.5045C29.2266 33.9362 28.9246 33.1851 28.969 32.5446C28.9892 32.2526 29.1036 31.954 29.7985 31.954C30.415 31.954 31.1002 32.2081 31.1069 32.2105C31.1443 32.2246 31.1835 32.2316 31.2224 32.2316C31.2231 32.2316 31.224 32.2316 31.2249 32.2316C31.406 32.2316 31.5528 32.0848 31.5528 31.9037C31.5528 31.886 31.5513 31.8686 31.5487 31.8517L31.457 28.9798C31.7882 28.7687 32.5805 28.255 33.3422 27.7013C35.1848 26.3618 35.4317 25.8496 35.2344 25.4605C34.9732 24.9307 34.2856 24.8447 33.4895 24.745C33.0339 24.688 32.5176 24.6233 32.0512 24.469C31.0797 24.1461 30.4396 23.3073 30.2939 23.1011C30.2638 22.9286 30.1916 22.3471 30.4769 21.8507C30.7856 21.3082 31.8532 20.4682 32.2386 20.1902C32.3488 20.1109 32.3986 19.9717 32.3639 19.8405C32.3291 19.7093 32.2171 19.6129 32.0822 19.5984C32.0491 19.5947 31.0696 19.4969 29.4696 20.0267C28.1668 20.4631 27.1564 21.1705 26.8082 21.4329C26.6584 21.4035 26.4021 21.363 25.9773 21.3192C28.4723 18.5018 32.0111 16.8979 35.7814 16.8979C38.5486 16.8979 41.1632 17.7394 43.3892 19.3395L41.1849 19.7081C41.0352 19.7332 40.9223 19.8578 40.9119 20.0091C40.9015 20.1606 40.9966 20.2993 41.1414 20.3446C41.1708 20.3537 44.1062 21.2817 46.2966 22.9701C46.784 23.3516 47.2296 23.8456 47.6216 24.4388C47.9871 25.2222 48.2731 26.0301 48.4757 26.8501L47.7387 26.2774C47.6078 26.1758 47.4232 26.1893 47.3065 26.3066C47.1891 26.4237 47.1794 26.6114 47.2817 26.7416Z" fill="black"/>
<rect x="1" y="1" width="213" height="64" stroke="black" stroke-miterlimit="0" stroke-linejoin="bevel"/>
</svg>
