<svg width="215" height="66" viewBox="0 0 215 66" fill="none" xmlns="http://www.w3.org/2000/svg">
<rect x="1" y="1" width="213" height="64" rx="10" fill="white"/>
<path d="M54.602 26.6229C54.4567 26.6006 54.3143 26.6782 54.2537 26.812L53.8061 27.8028C53.6361 26.5005 53.3209 24.4043 52.9045 23.0298C52.2699 20.9135 50.926 19.5453 50.8691 19.488C50.7661 19.3845 50.6074 19.3615 50.4792 19.4316C50.3512 19.5016 50.2848 19.6478 50.3166 19.7902L50.6643 21.3572C49.8275 20.483 48.4832 19.2283 47.1529 18.6166C46.8331 18.4607 46.508 18.3178 46.2233 18.1945C43.3332 15.6273 39.6269 14.2141 35.7809 14.2141C30.3648 14.2141 25.4286 16.9273 22.506 21.4907C22.231 21.2686 21.8454 20.88 21.6245 20.3199C21.2226 19.3348 21.0191 18.2281 21.017 18.2171C20.9954 18.0982 20.9104 18.0009 20.7955 17.9637C20.6809 17.9265 20.5547 17.9553 20.4675 18.0388C18.059 20.3484 18.2981 23.949 18.3879 24.7651C18.0894 25.0839 17.2458 26.0291 16.3935 27.3929C15.3352 29.0873 15.0148 32.0496 15.0018 32.1748C14.9873 32.3146 15.0632 32.4481 15.1908 32.5069C15.3189 32.5656 15.4696 32.5364 15.5659 32.4343L16.2708 31.6897C16.1939 31.9747 16.1165 32.2995 16.0451 32.6633C15.7276 34.2337 15.8204 36.6697 15.8245 36.7726C15.8305 36.9234 15.9387 37.0508 16.0868 37.0808C16.2347 37.1112 16.3841 37.0361 16.4486 36.8996L16.8634 36.0213C17.1692 38.1592 18.3433 42.7079 22.8453 46.8983C26.1796 50.0042 30.8173 51.7858 35.5692 51.786C35.5697 51.786 35.5699 51.786 35.5704 51.786C40.1824 51.786 44.537 50.1365 48.1628 47.0162C52.4501 43.3227 54.0473 38.0482 54.632 34.2737C55.2633 30.1988 54.8938 27.0402 54.8776 26.9078C54.8602 26.7617 54.7476 26.6452 54.602 26.6229ZM47.2817 26.7416C47.2862 26.7474 47.731 27.3299 47.828 28.8226C47.8949 29.9396 47.6657 31.726 47.521 32.7034L46.6475 31.6898C46.5532 31.5805 46.3988 31.5453 46.2667 31.6039C46.1346 31.6623 46.0563 31.8001 46.0738 31.9433C46.0768 31.9685 46.3745 34.4923 45.8736 36.6861C45.6365 37.717 45.2655 38.458 44.9472 38.9471L45.0693 37.2947C45.081 37.1361 44.9774 36.9921 44.8233 36.9529C44.6691 36.9135 44.5091 36.9904 44.4437 37.1353C44.429 37.168 42.9148 40.4187 38.768 41.7059C38.1889 41.8842 37.579 41.9747 36.955 41.9747C34.7447 41.9748 32.7364 40.8472 31.598 40.0548C31.696 40.0598 31.7934 40.0623 31.8903 40.0623C33.5211 40.0623 34.7752 39.3598 35.7831 38.7952C36.0479 38.6469 36.298 38.5068 36.5386 38.3879C37.9871 37.6595 38.6605 37.5984 39.1778 37.5984C39.4511 37.5984 39.6619 37.4388 39.728 37.182C39.8899 36.5518 39.1322 35.4284 38.1965 34.9133C37.7324 34.661 37.2362 34.5435 36.6351 34.5435C35.6789 34.5435 34.4932 34.8451 32.7948 35.3049C32.4831 35.388 32.1753 35.4303 31.88 35.4303C30.8392 35.4304 30.151 34.9269 29.7569 34.5045C29.2266 33.9362 28.9246 33.1851 28.969 32.5446C28.9892 32.2526 29.1036 31.954 29.7985 31.954C30.415 31.954 31.1002 32.2081 31.1069 32.2105C31.1443 32.2246 31.1835 32.2316 31.2224 32.2316C31.2231 32.2316 31.224 32.2316 31.2249 32.2316C31.406 32.2316 31.5528 32.0848 31.5528 31.9037C31.5528 31.886 31.5513 31.8686 31.5487 31.8517L31.457 28.9798C31.7882 28.7687 32.5805 28.255 33.3422 27.7013C35.1848 26.3618 35.4317 25.8496 35.2344 25.4605C34.9732 24.9307 34.2856 24.8447 33.4895 24.745C33.0339 24.688 32.5176 24.6233 32.0512 24.469C31.0797 24.1461 30.4396 23.3073 30.2939 23.1011C30.2638 22.9286 30.1916 22.3471 30.4769 21.8507C30.7856 21.3082 31.8532 20.4682 32.2386 20.1902C32.3488 20.1109 32.3986 19.9717 32.3639 19.8405C32.3291 19.7093 32.2171 19.6129 32.0822 19.5984C32.0491 19.5947 31.0696 19.4969 29.4696 20.0267C28.1668 20.4631 27.1564 21.1705 26.8082 21.4329C26.6584 21.4035 26.4021 21.363 25.9773 21.3192C28.4723 18.5018 32.0111 16.8979 35.7814 16.8979C38.5486 16.8979 41.1632 17.7394 43.3892 19.3395L41.1849 19.7081C41.0352 19.7332 40.9223 19.8578 40.9119 20.0091C40.9015 20.1606 40.9966 20.2993 41.1414 20.3446C41.1708 20.3537 44.1062 21.2817 46.2966 22.9701C46.784 23.3516 47.2296 23.8456 47.6216 24.4388C47.9871 25.2222 48.2731 26.0301 48.4757 26.8501L47.7387 26.2774C47.6078 26.1758 47.4232 26.1893 47.3065 26.3066C47.1891 26.4237 47.1794 26.6114 47.2817 26.7416Z" fill="black"/>
<path d="M70.9741 12.4312V23H74.7607C77.9102 23 79.7632 21.0371 79.7632 17.6973C79.7632 14.3647 77.9102 12.4312 74.7607 12.4312H70.9741ZM72.6147 13.8447H74.6069C76.8481 13.8447 78.0933 15.2217 78.0933 17.7119C78.0933 20.2095 76.8481 21.5791 74.6069 21.5791H72.6147V13.8447ZM85.7752 23.0952C88.075 23.0952 89.5325 21.5278 89.5325 19.0229C89.5325 16.5181 88.0677 14.9434 85.7752 14.9434C83.4827 14.9434 82.0105 16.5254 82.0105 19.0229C82.0105 21.5278 83.4754 23.0952 85.7752 23.0952ZM85.7752 21.7769C84.4275 21.7769 83.6219 20.7588 83.6219 19.0229C83.6219 17.2944 84.4275 16.2617 85.7752 16.2617C87.1229 16.2617 87.9212 17.2871 87.9212 19.0229C87.9212 20.7588 87.1229 21.7769 85.7752 21.7769ZM102.422 15.0459H100.855L99.3751 21.3447H99.3458L97.6539 15.0459H96.1305L94.4459 21.3447H94.4166L92.9371 15.0459H91.3551L93.5523 23H95.1856L96.8629 17.0088H96.8995L98.5914 23H100.232L102.422 15.0459ZM104.633 23H106.222V18.4077C106.222 17.1553 106.94 16.3203 108.141 16.3203C109.306 16.3203 109.862 16.9941 109.862 18.2026V23H111.452V17.9023C111.452 16.0713 110.448 14.958 108.69 14.958C107.46 14.958 106.662 15.4487 106.178 16.3862H106.149V15.0459H104.633V23ZM114.307 23H115.896V11.9551H114.307V23ZM122.201 23.0952C124.501 23.0952 125.958 21.5278 125.958 19.0229C125.958 16.5181 124.494 14.9434 122.201 14.9434C119.909 14.9434 118.437 16.5254 118.437 19.0229C118.437 21.5278 119.901 23.0952 122.201 23.0952ZM122.201 21.7769C120.854 21.7769 120.048 20.7588 120.048 19.0229C120.048 17.2944 120.854 16.2617 122.201 16.2617C123.549 16.2617 124.347 17.2871 124.347 19.0229C124.347 20.7588 123.549 21.7769 122.201 21.7769ZM131.194 21.8135C130.279 21.8135 129.685 21.374 129.685 20.6929C129.685 19.9897 130.249 19.5869 131.333 19.521L133.267 19.3892V20.0117C133.267 21.0591 132.373 21.8135 131.194 21.8135ZM130.769 23.0806C131.853 23.0806 132.842 22.5386 133.282 21.6743H133.318V23H134.834V17.5435C134.834 15.9688 133.582 14.9434 131.641 14.9434C129.854 14.9434 128.521 15.9834 128.477 17.3896H129.964C130.103 16.7012 130.733 16.2544 131.597 16.2544C132.659 16.2544 133.267 16.7524 133.267 17.6606V18.2759L131.121 18.4004C129.158 18.5249 128.081 19.3306 128.081 20.7222C128.081 22.1431 129.18 23.0806 130.769 23.0806ZM140.627 23.0806C141.791 23.0806 142.699 22.5532 143.168 21.6523H143.197V23H144.735V11.9551H143.153V16.3643H143.117C142.663 15.4854 141.754 14.9653 140.612 14.9653C138.634 14.9653 137.272 16.5693 137.272 19.0156C137.272 21.4766 138.634 23.0806 140.627 23.0806ZM141.029 16.313C142.304 16.313 143.161 17.4043 143.161 19.0229C143.161 20.6489 142.304 21.7329 141.029 21.7329C139.74 21.7329 138.898 20.6709 138.898 19.0229C138.898 17.3823 139.748 16.313 141.029 16.313ZM152.753 23H154.335V16.2983H155.851V15.0459H154.321V14.3647C154.328 13.6836 154.599 13.3979 155.251 13.3979C155.463 13.3979 155.683 13.4199 155.844 13.4565V12.248C155.588 12.2041 155.324 12.1748 155.038 12.1748C153.427 12.1748 152.753 12.8267 152.753 14.3135V15.0459H151.654V16.2983H152.753V23ZM161.453 23.0952C163.753 23.0952 165.21 21.5278 165.21 19.0229C165.21 16.5181 163.746 14.9434 161.453 14.9434C159.161 14.9434 157.688 16.5254 157.688 19.0229C157.688 21.5278 159.153 23.0952 161.453 23.0952ZM161.453 21.7769C160.105 21.7769 159.3 20.7588 159.3 19.0229C159.3 17.2944 160.105 16.2617 161.453 16.2617C162.801 16.2617 163.599 17.2871 163.599 19.0229C163.599 20.7588 162.801 21.7769 161.453 21.7769ZM167.685 23H169.274V18.2539C169.274 17.1333 169.933 16.4082 170.981 16.4082C171.296 16.4082 171.574 16.4521 171.706 16.5034V15.0166C171.581 14.9873 171.384 14.9653 171.149 14.9653C170.212 14.9653 169.479 15.5 169.23 16.3862H169.201V15.0459H167.685V23Z" fill="black"/>
<path d="M75.3574 50V42.7891H82.8096V39.7549H75.3574V34.8418H83.5205V31.6807H71.5234V50H75.3574ZM85.5898 50H89.2969V36.0225H85.5898V50ZM87.4434 34.499C88.5479 34.499 89.4492 33.6611 89.4492 32.5566C89.4492 31.4521 88.5479 30.627 87.4434 30.627C86.3516 30.627 85.4502 31.4521 85.4502 32.5566C85.4502 33.6611 86.3516 34.499 87.4434 34.499ZM91.874 50H95.5811V42.1797C95.5811 40.2246 96.6855 39.0566 98.5645 39.0566C99.1104 39.0566 99.6182 39.1455 99.9355 39.2725V35.9971C99.6689 35.9082 99.2881 35.8574 98.8564 35.8574C97.2061 35.8574 96 36.7969 95.5303 38.5234H95.4541V36.0225H91.874V50ZM107.299 38.5488C109.013 38.5488 110.206 39.7422 110.27 41.5703H104.239C104.366 39.7803 105.61 38.5488 107.299 38.5488ZM110.32 45.7344C109.965 46.8135 108.86 47.4736 107.464 47.4736C105.509 47.4736 104.201 46.1152 104.201 44.0967V43.8682H113.85V42.7256C113.85 38.4727 111.285 35.7812 107.261 35.7812C103.16 35.7812 100.545 38.625 100.545 43.0684C100.545 47.5117 103.147 50.2412 107.4 50.2412C110.803 50.2412 113.329 48.4385 113.735 45.7344H110.32ZM116.833 50H120.54V38.8281H123.079V36.0225H120.464V34.9941C120.477 34.0166 120.934 33.5977 122.051 33.5977C122.457 33.5977 122.8 33.6357 123.066 33.6865V31.1094C122.559 31.0332 121.987 30.9824 121.353 30.9824C118.115 30.9824 116.833 32.0869 116.833 34.7783V36.0225H114.941V38.8281H116.833V50ZM131.153 50.2412C135.394 50.2412 138.047 47.5371 138.047 43.0049C138.047 38.5234 135.368 35.7812 131.153 35.7812C126.951 35.7812 124.26 38.5361 124.26 43.0049C124.26 47.5244 126.913 50.2412 131.153 50.2412ZM131.153 47.3848C129.198 47.3848 128.018 45.7852 128.018 43.0049C128.018 40.2627 129.198 38.625 131.153 38.625C133.096 38.625 134.276 40.25 134.276 43.0049C134.276 45.7852 133.108 47.3848 131.153 47.3848ZM145.41 45.1123L148.102 50H152.151L147.784 42.9414L152.177 36.0225H148.152L145.601 40.7832H145.524L142.96 36.0225H138.783L143.163 43.0303L138.745 50H142.655L145.334 45.1123H145.41Z" fill="black"/>
<rect x="1" y="1" width="213" height="64" stroke="black" stroke-miterlimit="0" stroke-linejoin="bevel"/>
</svg>
